<svg xmlns="http://www.w3.org/2000/svg" width="1920" height="1080">
    <style>path { stroke-width: 1.51; }</style>
    <g><path d="M375,-279L632,-237L1061,-233Z" fill="#c8776d" stroke="#c8776d"/><path d="M697,1394L116,1411L1205,1397Z" fill="#8c7e91" stroke="#8c7e91"/><path d="M375,-279L1061,-233L1258,-245Z" fill="#c98481" stroke="#c98481"/><path d="M375,-279L1258,-245L1562,-264Z" fill="#c08384" stroke="#c08384"/><path d="M-8,-330L375,-279L1562,-264Z" fill="#bc6e65" stroke="#bc6e65"/><path d="M1562,-264L1722,-203L1991,-219Z" fill="#86566e" stroke="#86566e"/><path d="M1562,-264L1991,-219L2041,-226Z" fill="#7e4c69" stroke="#7e4c69"/><path d="M2021,-103L2033,60L2041,-226Z" fill="#884a64" stroke="#884a64"/><path d="M1958,873L2020,967L2083,762Z" fill="#618cb9" stroke="#618cb9"/><path d="M1993,1279L1733,1308L2115,1344Z" fill="#1b5a9b" stroke="#1b5a9b"/><path d="M1733,1308L1603,1335L2115,1344Z" fill="#25629e" stroke="#25629e"/><path d="M1603,1335L1412,1385L2115,1344Z" fill="#2a689d" stroke="#2a689d"/><path d="M2033,60L2063,289L2158,594Z" fill="#93849a" stroke="#93849a"/><path d="M2041,-226L2033,60L2158,594Z" fill="#926b7c" stroke="#926b7c"/><path d="M1977,600L2083,762L2158,594Z" fill="#8195ba" stroke="#8195ba"/><path d="M2021,403L1977,600L2158,594Z" fill="#8f9dbe" stroke="#8f9dbe"/><path d="M2063,289L2021,403L2158,594Z" fill="#9291ac" stroke="#9291ac"/><path d="M2020,967L1939,1222L2160,1078Z" fill="#2c6da6" stroke="#2c6da6"/><path d="M1939,1222L1993,1279L2160,1078Z" fill="#2261a0" stroke="#2261a0"/><path d="M2083,762L2020,967L2160,1078Z" fill="#4d7caa" stroke="#4d7caa"/><path d="M1993,1279L2115,1344L2160,1078Z" fill="#1a5695" stroke="#1a5695"/><path d="M2158,594L2083,762L2160,1078Z" fill="#6483aa" stroke="#6483aa"/><path d="M1913,1001L1939,1222L2020,967Z" fill="#347ab4" stroke="#347ab4"/><path d="M2021,-103L1971,-52L2033,60Z" fill="#8e556e" stroke="#8e556e"/><path d="M2033,60L1906,84L2063,289Z" fill="#9a7588" stroke="#9a7588"/><path d="M1991,-219L2021,-103L2041,-226Z" fill="#7e3f5d" stroke="#7e3f5d"/><path d="M1974,378L2021,403L2063,289Z" fill="#9993ac" stroke="#9993ac"/><path d="M1977,600L1958,873L2083,762Z" fill="#7a98c2" stroke="#7a98c2"/><path d="M1787,160L1849,364L1906,84Z" fill="#a7909f" stroke="#a7909f"/><path d="M1849,364L1974,378L2063,289Z" fill="#9e98b3" stroke="#9e98b3"/><path d="M1906,84L1849,364L2063,289Z" fill="#a28ca4" stroke="#a28ca4"/><path d="M1913,1001L1828,1094L1939,1222Z" fill="#337bb7" stroke="#337bb7"/><path d="M1765,780L1958,873L1977,600Z" fill="#7fa3ce" stroke="#7fa3ce"/><path d="M1974,378L1977,600L2021,403Z" fill="#989ebf" stroke="#989ebf"/><path d="M1974,378L1812,589L1977,600Z" fill="#9aabd0" stroke="#9aabd0"/><path d="M1971,-52L1906,84L2033,60Z" fill="#97647b" stroke="#97647b"/><path d="M1849,364L1812,589L1974,378Z" fill="#a0aac8" stroke="#a0aac8"/><path d="M1812,589L1765,780L1977,600Z" fill="#90aed3" stroke="#90aed3"/><path d="M1722,-203L1827,-150L1991,-219Z" fill="#89516c" stroke="#89516c"/><path d="M1827,-150L1971,-52L1991,-219Z" fill="#8d4f6d" stroke="#8d4f6d"/><path d="M1958,873L1913,1001L2020,967Z" fill="#5389bc" stroke="#5389bc"/><path d="M1991,-219L1971,-52L2021,-103Z" fill="#884966" stroke="#884966"/><path d="M1939,1222L1733,1308L1993,1279Z" fill="#2365a8" stroke="#2365a8"/><path d="M1827,-150L1906,84L1971,-52Z" fill="#976079" stroke="#976079"/><path d="M1765,780L1692,923L1913,1001Z" fill="#66a1cb" stroke="#66a1cb"/><path d="M1765,780L1913,1001L1958,873Z" fill="#669ac9" stroke="#669ac9"/><path d="M1828,1094L1733,1308L1939,1222Z" fill="#2e73b3" stroke="#2e73b3"/><path d="M1787,160L1707,293L1849,364Z" fill="#aaa0b0" stroke="#aaa0b0"/><path d="M1706,417L1812,589L1849,364Z" fill="#a4b4ce" stroke="#a4b4ce"/><path d="M1827,-150L1787,160L1906,84Z" fill="#9f7284" stroke="#9f7284"/><path d="M1692,923L1828,1094L1913,1001Z" fill="#4d90c2" stroke="#4d90c2"/><path d="M1722,-203L1488,-38L1787,160Z" fill="#a77a84" stroke="#a77a84"/><path d="M1488,-38L1520,127L1787,160Z" fill="#b69297" stroke="#b69297"/><path d="M1722,-203L1787,160L1827,-150Z" fill="#9c697b" stroke="#9c697b"/><path d="M1707,293L1706,417L1849,364Z" fill="#aab0c1" stroke="#aab0c1"/><path d="M1617,744L1765,780L1812,589Z" fill="#90b8d8" stroke="#90b8d8"/><path d="M1559,1100L1733,1308L1828,1094Z" fill="#3a84bc" stroke="#3a84bc"/><path d="M1692,923L1559,1100L1828,1094Z" fill="#4b96c5" stroke="#4b96c5"/><path d="M632,-237L879,-211L1061,-233Z" fill="#ce847e" stroke="#ce847e"/><path d="M1581,703L1617,744L1812,589Z" fill="#98c0dc" stroke="#98c0dc"/><path d="M1599,495L1581,703L1812,589Z" fill="#a3c4de" stroke="#a3c4de"/><path d="M1706,417L1599,495L1812,589Z" fill="#a7c0d7" stroke="#a7c0d7"/><path d="M1548,246L1707,293L1787,160Z" fill="#b1a4ad" stroke="#b1a4ad"/><path d="M1520,127L1548,246L1787,160Z" fill="#b8a2a5" stroke="#b8a2a5"/><path d="M1559,1100L1603,1335L1733,1308Z" fill="#4281ba" stroke="#4281ba"/><path d="M1617,744L1692,923L1765,780Z" fill="#7db3d5" stroke="#7db3d5"/><path d="M1562,-264L1488,-38L1722,-203Z" fill="#a46c78" stroke="#a46c78"/><path d="M1516,1041L1559,1100L1692,923Z" fill="#62a3cd" stroke="#62a3cd"/><path d="M1548,246L1706,417L1707,293Z" fill="#b3b4bf" stroke="#b3b4bf"/><path d="M1476,-52L1488,-38L1562,-264Z" fill="#b37b82" stroke="#b37b82"/><path d="M1548,246L1599,495L1706,417Z" fill="#b6c0cd" stroke="#b6c0cd"/><path d="M1617,744L1516,1041L1692,923Z" fill="#78b2d5" stroke="#78b2d5"/><path d="M1365,340L1373,414L1548,246Z" fill="#cfcdcd" stroke="#cfcdcd"/><path d="M1406,-185L1476,-52L1562,-264Z" fill="#b1767e" stroke="#b1767e"/><path d="M1548,246L1373,414L1599,495Z" fill="#c4cbd2" stroke="#c4cbd2"/><path d="M1332,565L1581,703L1599,495Z" fill="#b9d6e7" stroke="#b9d6e7"/><path d="M1559,1100L1417,1115L1603,1335Z" fill="#5994c5" stroke="#5994c5"/><path d="M1417,1115L1412,1385L1603,1335Z" fill="#598bbb" stroke="#598bbb"/><path d="M1581,703L1360,893L1617,744Z" fill="#9dc8e0" stroke="#9dc8e0"/><path d="M1360,893L1516,1041L1617,744Z" fill="#8bbfdb" stroke="#8bbfdb"/><path d="M1258,-245L1406,-185L1562,-264Z" fill="#a9767d" stroke="#a9767d"/><path d="M1313,772L1360,893L1581,703Z" fill="#a9d0e4" stroke="#a9d0e4"/><path d="M1373,414L1332,565L1599,495Z" fill="#cadbe5" stroke="#cadbe5"/><path d="M1332,565L1313,772L1581,703Z" fill="#bcd9e9" stroke="#bcd9e9"/><path d="M1488,-38L1386,62L1520,127Z" fill="#c59a98" stroke="#c59a98"/><path d="M1516,1041L1417,1115L1559,1100Z" fill="#65a4cd" stroke="#65a4cd"/><path d="M1520,127L1365,340L1548,246Z" fill="#cabab8" stroke="#cabab8"/><path d="M1104,1358L697,1394L1205,1397Z" fill="#8590b0" stroke="#8590b0"/><path d="M1360,893L1417,1115L1516,1041Z" fill="#7bb4d5" stroke="#7bb4d5"/><path d="M1386,62L1266,237L1520,127Z" fill="#d1b0aa" stroke="#d1b0aa"/><path d="M1266,237L1365,340L1520,127Z" fill="#d5c1bb" stroke="#d5c1bb"/><path d="M1245,1144L1412,1385L1417,1115Z" fill="#719dca" stroke="#719dca"/><path d="M1476,-52L1386,62L1488,-38Z" fill="#c29290" stroke="#c29290"/><path d="M1406,-185L1280,36L1476,-52Z" fill="#c48c8c" stroke="#c48c8c"/><path d="M1280,36L1386,62L1476,-52Z" fill="#cb9996" stroke="#cb9996"/><path d="M1238,640L1313,772L1332,565Z" fill="#cce2ee" stroke="#cce2ee"/><path d="M1280,36L1266,237L1386,62Z" fill="#d8b0a8" stroke="#d8b0a8"/><path d="M1146,-96L1280,36L1406,-185Z" fill="#ce908e" stroke="#ce908e"/><path d="M1258,-245L1146,-96L1406,-185Z" fill="#c58384" stroke="#c58384"/><path d="M1245,1144L1205,1397L1412,1385Z" fill="#7292bb" stroke="#7292bb"/><path d="M1360,893L1245,1144L1417,1115Z" fill="#81b4d6" stroke="#81b4d6"/><path d="M1144,941L1245,1144L1360,893Z" fill="#99c3de" stroke="#99c3de"/><path d="M1181,459L1332,565L1373,414Z" fill="#dbe3e8" stroke="#dbe3e8"/><path d="M1365,340L1181,459L1373,414Z" fill="#dcddde" stroke="#dcddde"/><path d="M1313,772L1219,773L1360,893Z" fill="#b5d6e8" stroke="#b5d6e8"/><path d="M1266,237L1181,459L1365,340Z" fill="#e2d9d5" stroke="#e2d9d5"/><path d="M1219,773L1144,941L1360,893Z" fill="#b1d4e7" stroke="#b1d4e7"/><path d="M1111,1203L1205,1397L1245,1144Z" fill="#85a2cd" stroke="#85a2cd"/><path d="M1123,167L1266,237L1280,36Z" fill="#e4bcb0" stroke="#e4bcb0"/><path d="M1238,640L1219,773L1313,772Z" fill="#c8e0ed" stroke="#c8e0ed"/><path d="M1181,459L1238,640L1332,565Z" fill="#ddeaf2" stroke="#ddeaf2"/><path d="M262,1368L116,1411L697,1394Z" fill="#895d6c" stroke="#895d6c"/><path d="M1111,1203L1104,1358L1205,1397Z" fill="#8197bd" stroke="#8197bd"/><path d="M1123,167L1181,459L1266,237Z" fill="#ead5cc" stroke="#ead5cc"/><path d="M1146,-96L1123,167L1280,36Z" fill="#e1a99f" stroke="#e1a99f"/><path d="M1123,167L966,303L1181,459Z" fill="#f1dcd2" stroke="#f1dcd2"/><path d="M1061,-233L1146,-96L1258,-245Z" fill="#cb8786" stroke="#cb8786"/><path d="M1090,904L1144,941L1219,773Z" fill="#bad8e9" stroke="#bad8e9"/><path d="M1144,941L1111,1203L1245,1144Z" fill="#92b8d8" stroke="#92b8d8"/><path d="M1087,777L1090,904L1219,773Z" fill="#c5deec" stroke="#c5deec"/><path d="M1181,459L982,603L1238,640Z" fill="#e7eff4" stroke="#e7eff4"/><path d="M1087,777L1219,773L1238,640Z" fill="#d1e4ef" stroke="#d1e4ef"/><path d="M982,603L1087,777L1238,640Z" fill="#deebf3" stroke="#deebf3"/><path d="M1008,462L982,603L1181,459Z" fill="#f1f1f1" stroke="#f1f1f1"/><path d="M966,303L1008,462L1181,459Z" fill="#f3e9e3" stroke="#f3e9e3"/><path d="M964,-84L1123,167L1146,-96Z" fill="#e5a59b" stroke="#e5a59b"/><path d="M375,-279L448,-255L632,-237Z" fill="#bf6052" stroke="#bf6052"/><path d="M893,1290L697,1394L1104,1358Z" fill="#8e95b3" stroke="#8e95b3"/><path d="M1090,904L1111,1203L1144,941Z" fill="#a1c6df" stroke="#a1c6df"/><path d="M1090,904L786,956L1111,1203Z" fill="#abc9e0" stroke="#abc9e0"/><path d="M786,956L783,1177L1111,1203Z" fill="#a4b9d4" stroke="#a4b9d4"/><path d="M964,-84L868,91L1123,167Z" fill="#f0b3a5" stroke="#f0b3a5"/><path d="M1061,-233L964,-84L1146,-96Z" fill="#db918b" stroke="#db918b"/><path d="M783,1177L893,1290L1111,1203Z" fill="#9babd0" stroke="#9babd0"/><path d="M893,1290L1104,1358L1111,1203Z" fill="#8da1c7" stroke="#8da1c7"/><path d="M880,208L966,303L1123,167Z" fill="#f8d2c2" stroke="#f8d2c2"/><path d="M868,91L880,208L1123,167Z" fill="#f8c7b5" stroke="#f8c7b5"/><path d="M1087,777L925,796L1090,904Z" fill="#cce1ed" stroke="#cce1ed"/><path d="M982,603L925,796L1087,777Z" fill="#dfebf3" stroke="#dfebf3"/><path d="M783,1177L806,1228L893,1290Z" fill="#9da5c6" stroke="#9da5c6"/><path d="M925,796L786,956L1090,904Z" fill="#c8dde8" stroke="#c8dde8"/><path d="M879,-211L964,-84L1061,-233Z" fill="#db8e8a" stroke="#db8e8a"/><path d="M872,583L925,796L982,603Z" fill="#ebeff1" stroke="#ebeff1"/><path d="M966,303L833,478L1008,462Z" fill="#faebe3" stroke="#faebe3"/><path d="M872,583L982,603L1008,462Z" fill="#f6f6f7" stroke="#f6f6f7"/><path d="M833,478L872,583L1008,462Z" fill="#f9f1ed" stroke="#f9f1ed"/><path d="M872,583L779,702L925,796Z" fill="#e9e9ea" stroke="#e9e9ea"/><path d="M827,-78L868,91L964,-84Z" fill="#eba293" stroke="#eba293"/><path d="M879,-211L827,-78L964,-84Z" fill="#e29288" stroke="#e29288"/><path d="M880,208L833,478L966,303Z" fill="#fbdfd1" stroke="#fbdfd1"/><path d="M537,1338L262,1368L697,1394Z" fill="#917181" stroke="#917181"/><path d="M670,341L833,478L880,208Z" fill="#fcdcca" stroke="#fcdcca"/><path d="M779,702L786,956L925,796Z" fill="#d6dde1" stroke="#d6dde1"/><path d="M827,-78L707,10L868,91Z" fill="#eea28f" stroke="#eea28f"/><path d="M868,91L762,125L880,208Z" fill="#f7bda8" stroke="#f7bda8"/><path d="M806,1228L697,1394L893,1290Z" fill="#9697b4" stroke="#9697b4"/><path d="M668,1028L783,1177L786,956Z" fill="#aeb9ca" stroke="#aeb9ca"/><path d="M707,10L762,125L868,91Z" fill="#f2ad97" stroke="#f2ad97"/><path d="M632,-237L827,-78L879,-211Z" fill="#db8479" stroke="#db8479"/><path d="M762,125L670,341L880,208Z" fill="#fbc8b0" stroke="#fbc8b0"/><path d="M833,478L627,497L872,583Z" fill="#faebe2" stroke="#faebe2"/><path d="M627,497L779,702L872,583Z" fill="#f4e9e2" stroke="#f4e9e2"/><path d="M779,702L632,723L786,956Z" fill="#dcdad9" stroke="#dcdad9"/><path d="M632,723L570,806L786,956Z" fill="#d7d0ce" stroke="#d7d0ce"/><path d="M632,-237L707,10L827,-78Z" fill="#e38c7b" stroke="#e38c7b"/><path d="M670,341L627,497L833,478Z" fill="#fce0d0" stroke="#fce0d0"/><path d="M627,497L632,723L779,702Z" fill="#f0e0d8" stroke="#f0e0d8"/><path d="M783,1177L697,1394L806,1228Z" fill="#9b9bb9" stroke="#9b9bb9"/><path d="M566,302L670,341L762,125Z" fill="#fbc4aa" stroke="#fbc4aa"/><path d="M499,1138L537,1338L783,1177Z" fill="#a396ad" stroke="#a396ad"/><path d="M537,1338L697,1394L783,1177Z" fill="#988fa7" stroke="#988fa7"/><path d="M549,935L668,1028L786,956Z" fill="#bebfc6" stroke="#bebfc6"/><path d="M570,806L549,935L786,956Z" fill="#cbc6c7" stroke="#cbc6c7"/><path d="M668,1028L499,1138L783,1177Z" fill="#aaa9ba" stroke="#aaa9ba"/><path d="M707,10L573,34L762,125Z" fill="#f0a28a" stroke="#f0a28a"/><path d="M573,34L566,302L762,125Z" fill="#f5b093" stroke="#f5b093"/><path d="M-8,-330L145,-270L375,-279Z" fill="#a23033" stroke="#a23033"/><path d="M627,497L537,538L632,723Z" fill="#f6d9cd" stroke="#f6d9cd"/><path d="M537,538L509,635L632,723Z" fill="#f1d4c6" stroke="#f1d4c6"/><path d="M479,-34L573,34L632,-237Z" fill="#e07e69" stroke="#e07e69"/><path d="M632,-237L573,34L707,10Z" fill="#e48975" stroke="#e48975"/><path d="M421,242L566,302L573,34Z" fill="#f6ab89" stroke="#f6ab89"/><path d="M566,302L627,497L670,341Z" fill="#fcd1bb" stroke="#fcd1bb"/><path d="M549,935L499,1138L668,1028Z" fill="#b4acb4" stroke="#b4acb4"/><path d="M566,302L537,538L627,497Z" fill="#fbd2be" stroke="#fbd2be"/><path d="M509,635L570,806L632,723Z" fill="#e8d0c6" stroke="#e8d0c6"/><path d="M448,-255L479,-34L632,-237Z" fill="#d46b5a" stroke="#d46b5a"/><path d="M343,1118L499,1138L549,935Z" fill="#af9ca3" stroke="#af9ca3"/><path d="M333,404L537,538L566,302Z" fill="#fac5ab" stroke="#fac5ab"/><path d="M421,242L333,404L566,302Z" fill="#f7b497" stroke="#f7b497"/><path d="M353,764L549,935L570,806Z" fill="#d6bdb6" stroke="#d6bdb6"/><path d="M509,635L353,764L570,806Z" fill="#e5c4b8" stroke="#e5c4b8"/><path d="M479,-34L378,33L573,34Z" fill="#e58367" stroke="#e58367"/><path d="M378,33L421,242L573,34Z" fill="#ed9373" stroke="#ed9373"/><path d="M499,1138L343,1118L537,1338Z" fill="#a5899b" stroke="#a5899b"/><path d="M343,1118L262,1368L537,1338Z" fill="#9a7387" stroke="#9a7387"/><path d="M353,764L284,921L549,935Z" fill="#cdada8" stroke="#cdada8"/><path d="M284,921L343,1118L549,935Z" fill="#b99d9f" stroke="#b99d9f"/><path d="M358,640L353,764L509,635Z" fill="#e9bfb1" stroke="#e9bfb1"/><path d="M358,640L509,635L537,538Z" fill="#f3caba" stroke="#f3caba"/><path d="M333,404L358,640L537,538Z" fill="#f7c4b2" stroke="#f7c4b2"/><path d="M448,-255L271,-69L479,-34Z" fill="#d56351" stroke="#d56351"/><path d="M375,-279L271,-69L448,-255Z" fill="#c55448" stroke="#c55448"/><path d="M271,-69L378,33L479,-34Z" fill="#dc7059" stroke="#dc7059"/><path d="M284,921L243,1047L343,1118Z" fill="#af8a92" stroke="#af8a92"/><path d="M333,404L240,470L358,640Z" fill="#f2b5a4" stroke="#f2b5a4"/><path d="M378,33L245,233L421,242Z" fill="#ec9071" stroke="#ec9071"/><path d="M245,233L333,404L421,242Z" fill="#f1a286" stroke="#f1a286"/><path d="M179,1068L74,1263L262,1368Z" fill="#966079" stroke="#966079"/><path d="M92,148L245,233L271,-69Z" fill="#dd7058" stroke="#dd7058"/><path d="M179,1068L262,1368L343,1118Z" fill="#9f7185" stroke="#9f7185"/><path d="M145,-270L271,-69L375,-279Z" fill="#bd443e" stroke="#bd443e"/><path d="M271,-69L245,233L378,33Z" fill="#df755c" stroke="#df755c"/><path d="M171,683L353,764L358,640Z" fill="#e3aea4" stroke="#e3aea4"/><path d="M91,-5L92,148L271,-69Z" fill="#d25949" stroke="#d25949"/><path d="M171,683L284,921L353,764Z" fill="#d5a49d" stroke="#d5a49d"/><path d="M240,470L171,683L358,640Z" fill="#ebaea1" stroke="#ebaea1"/><path d="M245,233L240,470L333,404Z" fill="#f0a58e" stroke="#f0a58e"/><path d="M243,1047L179,1068L343,1118Z" fill="#a77f8a" stroke="#a77f8a"/><path d="M171,683L94,886L284,921Z" fill="#ca9693" stroke="#ca9693"/><path d="M94,886L179,1068L243,1047Z" fill="#af8087" stroke="#af8087"/><path d="M62,472L240,470L245,233Z" fill="#eb9c88" stroke="#eb9c88"/><path d="M32,220L62,472L245,233Z" fill="#e48974" stroke="#e48974"/><path d="M145,-270L91,-5L271,-69Z" fill="#c5423c" stroke="#c5423c"/><path d="M94,886L243,1047L284,921Z" fill="#b98b8e" stroke="#b98b8e"/><path d="M62,472L171,683L240,470Z" fill="#eaa499" stroke="#eaa499"/><path d="M74,1263L116,1411L262,1368Z" fill="#854b61" stroke="#854b61"/><path d="M92,148L32,220L245,233Z" fill="#df7961" stroke="#df7961"/><path d="M5,-24L91,-5L145,-270Z" fill="#c03937" stroke="#c03937"/><path d="M62,472L-23,610L171,683Z" fill="#e19891" stroke="#e19891"/><path d="M-17,733L94,886L171,683Z" fill="#ce908e" stroke="#ce908e"/><path d="M-96,1102L0,1233L179,1068Z" fill="#965e73" stroke="#965e73"/><path d="M-42,941L-96,1102L179,1068Z" fill="#a06a78" stroke="#a06a78"/><path d="M0,1233L74,1263L179,1068Z" fill="#965d75" stroke="#965d75"/><path d="M94,886L-42,941L179,1068Z" fill="#af7b82" stroke="#af7b82"/><path d="M-8,-330L5,-24L145,-270Z" fill="#ac232e" stroke="#ac232e"/><path d="M-23,610L-17,733L171,683Z" fill="#d8918d" stroke="#d8918d"/><path d="M-8,-330L-137,-84L5,-24Z" fill="#af1b2c" stroke="#af1b2c"/><path d="M32,220L-135,404L62,472Z" fill="#de8375" stroke="#de8375"/><path d="M91,-5L5,-24L92,148Z" fill="#cd5145" stroke="#cd5145"/><path d="M5,-24L-51,141L92,148Z" fill="#ce5649" stroke="#ce5649"/><path d="M74,1263L0,1233L116,1411Z" fill="#874963" stroke="#874963"/><path d="M0,1233L-227,1397L116,1411Z" fill="#793853" stroke="#793853"/><path d="M-181,-163L-137,-84L-8,-330Z" fill="#9d1128" stroke="#9d1128"/><path d="M-17,733L-42,941L94,886Z" fill="#be8184" stroke="#be8184"/><path d="M-51,141L32,220L92,148Z" fill="#d76855" stroke="#d76855"/><path d="M-135,404L-23,610L62,472Z" fill="#dd8c84" stroke="#dd8c84"/><path d="M-223,201L-135,404L-51,141Z" fill="#c5695b" stroke="#c5695b"/><path d="M-51,141L-135,404L32,220Z" fill="#d36f5f" stroke="#d36f5f"/><path d="M-165,701L-238,886L-42,941Z" fill="#a7767d" stroke="#a7767d"/><path d="M-163,1009L-96,1102L-42,941Z" fill="#946474" stroke="#946474"/><path d="M-23,610L-165,701L-17,733Z" fill="#ca8786" stroke="#ca8786"/><path d="M-165,701L-42,941L-17,733Z" fill="#bb7f82" stroke="#bb7f82"/><path d="M-137,-84L-51,141L5,-24Z" fill="#bd3e3a" stroke="#bd3e3a"/><path d="M-96,1102L-227,1397L0,1233Z" fill="#7c4566" stroke="#7c4566"/><path d="M-137,-84L-259,15L-51,141Z" fill="#b13c3a" stroke="#b13c3a"/><path d="M-135,404L-165,701L-23,610Z" fill="#cd8987" stroke="#cd8987"/><path d="M-259,15L-223,201L-51,141Z" fill="#b54f46" stroke="#b54f46"/><path d="M-238,886L-163,1009L-42,941Z" fill="#976a77" stroke="#976a77"/><path d="M-163,1009L-227,1397L-96,1102Z" fill="#794c69" stroke="#794c69"/><path d="M-223,201L-165,701L-135,404Z" fill="#c47d78" stroke="#c47d78"/><path d="M-181,-163L-259,15L-137,-84Z" fill="#9f252f" stroke="#9f252f"/><path d="M-223,201L-238,886L-165,701Z" fill="#ba8183" stroke="#ba8183"/><path d="M-238,886L-227,1397L-163,1009Z" fill="#77526c" stroke="#77526c"/><path d="M-259,15L-238,886L-223,201Z" fill="#b8736e" stroke="#b8736e"/>
    </g></svg>